<svg viewBox="0 0 512 512" xmlns="http://www.w3.org/2000/svg" xmlns:xlink="http://www.w3.org/1999/xlink" overflow="hidden"><path d="M207.8 20.73C114.35 39.05 39.1 114.39 20.8 207.83-6.84 348.73 89.45 474.03 219.9 492.93 238.91 495.818 256.07 480.67 256.07 461.44L256.07 460.777C256.07 445.037 244.63 431.897 229.23 429.537 144.88 416.557 80.0301 343.407 80.0301 255.337 80.0301 152.437 168.64 69.8369 273.43 79.9369 364.97 88.8059 432.03 171.187 432.03 263.137L432.03 279.297C432.03 301.387 414.09 319.347 392.03 319.347 369.97 319.347 352.02 301.387 352.02 279.297L352.02 159.197C352.02 150.35 344.859 143.177 336.01 143.177L304.03 143.18C296.731 143.18 290.83 148.173 288.91 154.861 264.06 142.71 234.67 138.48 202.85 149.755 164.1 163.484 134.73 198.665 129.13 239.395 119.647 308.405 172.94 367.395 240.03 367.395 266.47 367.395 290.46 357.85 309.62 342.514 333.62 373.815 374.85 391.204 419.02 380.004 465.2 369.3 496 324.1 495.1 277.2L495.1 256.3C495.1 107.1 361.2-9.332 207.8 20.73ZM239.1 304.3C212.63 304.3 191.1 282.74 191.1 256.25 191.1 229.76 212.63 208.2 239.1 208.2 265.57 208.2 287.1 229.76 287.1 256.25 287.1 282.74 266.5 304.3 239.1 304.3Z" fill="#F2F2F2"/></svg>